HIERARCHY
ROOT mixamorig:Hips
{
	OFFSET 0.000000 201.639420 0.000000
	CHANNELS 6 Xposition Yposition Zposition Xrotation Yrotation Zrotation
	JOINT mixamorig:Spine
	{
		OFFSET 0.006200 19.524994 -2.481800
		CHANNELS 3 Xrotation Yrotation Zrotation
		JOINT mixamorig:Spine1
		{
			OFFSET -0.000900 22.835007 -2.825400
			CHANNELS 3 Xrotation Yrotation Zrotation
			JOINT mixamorig:Spine2
			{
				OFFSET -0.020600 26.552490 -3.193300
				CHANNELS 3 Xrotation Yrotation Zrotation
				JOINT mixamorig:Neck
				{
					OFFSET -0.060000 30.701813 1.352200
					CHANNELS 3 Xrotation Yrotation Zrotation
					JOINT mixamorig:Head
					{
						OFFSET -0.087200 22.547607 3.670900
						CHANNELS 3 Xrotation Yrotation Zrotation
						JOINT mixamorig:HeadTop_End
						{
							OFFSET -0.830600 40.355194 7.893500
							CHANNELS 3 Xrotation Yrotation Zrotation
							End Site
							{
								OFFSET 0.000000 30.592346 0.000000
							}
						}
						JOINT mixamorig:RightEye
						{
							OFFSET -6.302100 18.118591 16.197100
							CHANNELS 3 Xrotation Yrotation Zrotation
							End Site
							{
								OFFSET 0.000000 30.592346 0.000000
							}
						}
						JOINT mixamorig:LeftEye
						{
							OFFSET 6.741500 18.382690 16.401899
							CHANNELS 3 Xrotation Yrotation Zrotation
							End Site
							{
								OFFSET 0.000000 30.592346 0.000000
							}
						}
					}
				}
				JOINT mixamorig:LeftShoulder
				{
					OFFSET 11.924900 18.230499 1.425400
					CHANNELS 3 Xrotation Yrotation Zrotation
					JOINT mixamorig:LeftArm
					{
						OFFSET 25.435989 -0.697632 -5.229300
						CHANNELS 3 Xrotation Yrotation Zrotation
						JOINT mixamorig:LeftForeArm
						{
							OFFSET 54.684776 0.000000 0.000000
							CHANNELS 3 Xrotation Yrotation Zrotation
							JOINT mixamorig:LeftHand
							{
								OFFSET 55.098175 0.000000 0.000000
								CHANNELS 3 Xrotation Yrotation Zrotation
								JOINT mixamorig:LeftHandMiddle1
								{
									OFFSET 23.369751 0.000000 0.000000
									CHANNELS 3 Xrotation Yrotation Zrotation
									JOINT mixamorig:LeftHandMiddle2
									{
										OFFSET 6.378677 0.000000 0.000000
										CHANNELS 3 Xrotation Yrotation Zrotation
										JOINT mixamorig:LeftHandMiddle3
										{
											OFFSET 6.148331 0.000000 0.000000
											CHANNELS 3 Xrotation Yrotation Zrotation
											JOINT mixamorig:LeftHandMiddle4
											{
												OFFSET 6.582504 0.000000 0.000000
												CHANNELS 3 Xrotation Yrotation Zrotation
												End Site
												{
													OFFSET -1.168900 6.395691 1.028606
												}
											}
										}
									}
								}
								JOINT mixamorig:LeftHandThumb1
								{
									OFFSET 7.235672 -3.848206 5.434273
									CHANNELS 3 Xrotation Yrotation Zrotation
									JOINT mixamorig:LeftHandThumb2
									{
										OFFSET 6.568451 -3.792297 3.792300
										CHANNELS 3 Xrotation Yrotation Zrotation
										JOINT mixamorig:LeftHandThumb3
										{
											OFFSET 6.063080 -3.500519 3.500518
											CHANNELS 3 Xrotation Yrotation Zrotation
											JOINT mixamorig:LeftHandThumb4
											{
												OFFSET 4.793182 -2.767334 2.767349
												CHANNELS 3 Xrotation Yrotation Zrotation
												End Site
												{
													OFFSET 0.101639 6.054260 1.275483
												}
											}
										}
									}
								}
								JOINT mixamorig:LeftHandIndex1
								{
									OFFSET 23.101074 -0.309540 4.992809
									CHANNELS 3 Xrotation Yrotation Zrotation
									JOINT mixamorig:LeftHandIndex2
									{
										OFFSET 6.226883 0.000000 0.000000
										CHANNELS 3 Xrotation Yrotation Zrotation
										JOINT mixamorig:LeftHandIndex3
										{
											OFFSET 6.094330 0.000000 0.000000
											CHANNELS 3 Xrotation Yrotation Zrotation
											JOINT mixamorig:LeftHandIndex4
											{
												OFFSET 5.482605 0.000000 0.000000
												CHANNELS 3 Xrotation Yrotation Zrotation
												End Site
												{
													OFFSET -1.427902 5.233032 0.797164
												}
											}
										}
									}
								}
								JOINT mixamorig:LeftHandRing1
								{
									OFFSET 22.299240 0.021149 -3.964172
									CHANNELS 3 Xrotation Yrotation Zrotation
									JOINT mixamorig:LeftHandRing2
									{
										OFFSET 6.321869 0.000000 0.000000
										CHANNELS 3 Xrotation Yrotation Zrotation
										JOINT mixamorig:LeftHandRing3
										{
											OFFSET 5.899796 0.000000 0.000000
											CHANNELS 3 Xrotation Yrotation Zrotation
											JOINT mixamorig:LeftHandRing4
											{
												OFFSET 6.517899 0.000000 0.000000
												CHANNELS 3 Xrotation Yrotation Zrotation
												End Site
												{
													OFFSET -1.637299 6.232208 0.980890
												}
											}
										}
									}
								}
								JOINT mixamorig:LeftHandPinky1
								{
									OFFSET 20.463791 -0.302338 -8.562233
									CHANNELS 3 Xrotation Yrotation Zrotation
									JOINT mixamorig:LeftHandPinky2
									{
										OFFSET 6.908646 0.000000 0.000000
										CHANNELS 3 Xrotation Yrotation Zrotation
										JOINT mixamorig:LeftHandPinky3
										{
											OFFSET 4.622849 0.000000 0.000000
											CHANNELS 3 Xrotation Yrotation Zrotation
											JOINT mixamorig:LeftHandPinky4
											{
												OFFSET 5.216080 0.000000 0.000000
												CHANNELS 3 Xrotation Yrotation Zrotation
												End Site
												{
													OFFSET -0.606308 5.116241 0.814926
												}
											}
										}
									}
								}
							}
						}
					}
				}
				JOINT mixamorig:RightShoulder
				{
					OFFSET -12.001300 18.284088 1.348900
					CHANNELS 3 Xrotation Yrotation Zrotation
					JOINT mixamorig:RightArm
					{
						OFFSET -25.308500 -0.751312 -5.164599
						CHANNELS 3 Xrotation Yrotation Zrotation
						JOINT mixamorig:RightForeArm
						{
							OFFSET -54.684429 0.000000 0.000000
							CHANNELS 3 Xrotation Yrotation Zrotation
							JOINT mixamorig:RightHand
							{
								OFFSET -55.150291 0.000000 0.000000
								CHANNELS 3 Xrotation Yrotation Zrotation
								JOINT mixamorig:RightHandMiddle1
								{
									OFFSET -23.317566 0.000000 0.000000
									CHANNELS 3 Xrotation Yrotation Zrotation
									JOINT mixamorig:RightHandMiddle2
									{
										OFFSET -6.378403 0.000000 0.000000
										CHANNELS 3 Xrotation Yrotation Zrotation
										JOINT mixamorig:RightHandMiddle3
										{
											OFFSET -6.148193 0.000000 0.000000
											CHANNELS 3 Xrotation Yrotation Zrotation
											JOINT mixamorig:RightHandMiddle4
											{
												OFFSET -6.583389 0.000000 0.000000
												CHANNELS 3 Xrotation Yrotation Zrotation
												End Site
												{
													OFFSET 1.171692 6.395905 1.029786
												}
											}
										}
									}
								}
								JOINT mixamorig:RightHandThumb1
								{
									OFFSET -7.190521 -3.860474 5.435846
									CHANNELS 3 Xrotation Yrotation Zrotation
									JOINT mixamorig:RightHandThumb2
									{
										OFFSET -6.567429 -3.791718 3.791708
										CHANNELS 3 Xrotation Yrotation Zrotation
										JOINT mixamorig:RightHandThumb3
										{
											OFFSET -6.062469 -3.500153 3.500166
											CHANNELS 3 Xrotation Yrotation Zrotation
											JOINT mixamorig:RightHandThumb4
											{
												OFFSET -4.792618 -2.767029 2.767022
												CHANNELS 3 Xrotation Yrotation Zrotation
												End Site
												{
													OFFSET -0.100327 6.053253 1.276754
												}
											}
										}
									}
								}
								JOINT mixamorig:RightHandIndex1
								{
									OFFSET -23.048981 -0.310791 4.992554
									CHANNELS 3 Xrotation Yrotation Zrotation
									JOINT mixamorig:RightHandIndex2
									{
										OFFSET -6.227539 0.000000 0.000000
										CHANNELS 3 Xrotation Yrotation Zrotation
										JOINT mixamorig:RightHandIndex3
										{
											OFFSET -6.095047 0.000000 0.000000
											CHANNELS 3 Xrotation Yrotation Zrotation
											JOINT mixamorig:RightHandIndex4
											{
												OFFSET -5.484772 0.000000 0.000000
												CHANNELS 3 Xrotation Yrotation Zrotation
												End Site
												{
													OFFSET 1.420593 5.237305 0.797056
												}
											}
										}
									}
								}
								JOINT mixamorig:RightHandRing1
								{
									OFFSET -22.246323 0.020569 -3.963762
									CHANNELS 3 Xrotation Yrotation Zrotation
									JOINT mixamorig:RightHandRing2
									{
										OFFSET -6.322128 0.000000 0.000000
										CHANNELS 3 Xrotation Yrotation Zrotation
										JOINT mixamorig:RightHandRing3
										{
											OFFSET -5.900024 0.000000 0.000000
											CHANNELS 3 Xrotation Yrotation Zrotation
											JOINT mixamorig:RightHandRing4
											{
												OFFSET -6.518356 0.000000 0.000000
												CHANNELS 3 Xrotation Yrotation Zrotation
												End Site
												{
													OFFSET 1.636398 6.232697 0.982186
												}
											}
										}
									}
								}
								JOINT mixamorig:RightHandPinky1
								{
									OFFSET -20.411011 -0.303314 -8.561701
									CHANNELS 3 Xrotation Yrotation Zrotation
									JOINT mixamorig:RightHandPinky2
									{
										OFFSET -6.907349 0.000000 0.000000
										CHANNELS 3 Xrotation Yrotation Zrotation
										JOINT mixamorig:RightHandPinky3
										{
											OFFSET -4.623840 0.000000 0.000000
											CHANNELS 3 Xrotation Yrotation Zrotation
											JOINT mixamorig:RightHandPinky4
											{
												OFFSET -5.218353 0.000000 0.000000
												CHANNELS 3 Xrotation Yrotation Zrotation
												End Site
												{
													OFFSET 0.602097 5.118835 0.816273
												}
											}
										}
									}
								}
							}
						}
					}
				}
			}
		}
	}
	JOINT mixamorig:LeftUpLeg
	{
		OFFSET 18.168400 -13.561905 -0.039000
		CHANNELS 3 Xrotation Yrotation Zrotation
		JOINT mixamorig:LeftLeg
		{
			OFFSET 0.577358 -80.825211 -3.695000
			CHANNELS 3 Xrotation Yrotation Zrotation
			JOINT mixamorig:LeftFoot
			{
				OFFSET -0.577356 -83.370262 -6.520700
				CHANNELS 3 Xrotation Yrotation Zrotation
				JOINT mixamorig:LeftToeBase
				{
					OFFSET 0.750401 -20.798306 25.135401
					CHANNELS 3 Xrotation Yrotation Zrotation
					JOINT mixamorig:LeftToe_End
					{
						OFFSET -0.000500 0.001200 19.917799
						CHANNELS 3 Xrotation Yrotation Zrotation
						End Site
						{
							OFFSET 0.000000 19.917805 0.000000
						}
					}
				}
			}
		}
	}
	JOINT mixamorig:RightUpLeg
	{
		OFFSET -18.162500 -13.585098 -0.041000
		CHANNELS 3 Xrotation Yrotation Zrotation
		JOINT mixamorig:RightLeg
		{
			OFFSET -0.595024 -80.945297 -3.631900
			CHANNELS 3 Xrotation Yrotation Zrotation
			JOINT mixamorig:RightFoot
			{
				OFFSET 0.595024 -83.218193 -6.561200
				CHANNELS 3 Xrotation Yrotation Zrotation
				JOINT mixamorig:RightToeBase
				{
					OFFSET -0.753601 -20.807106 25.115000
					CHANNELS 3 Xrotation Yrotation Zrotation
					JOINT mixamorig:RightToe_End
					{
						OFFSET 0.000299 0.001700 19.918200
						CHANNELS 3 Xrotation Yrotation Zrotation
						End Site
						{
							OFFSET 0.000000 19.918203 0.000000
						}
					}
				}
			}
		}
	}
}
MOTION
Frames: 4
Frame Time: 0.033333
14.317047 195.136612 48.568176 -7.527207 -31.635684 -4.006768 2.543003 -1.476984 0.221697 6.366550 -3.214711 1.940763 6.362915 -3.186143 2.002643 -5.210511 7.145611 -0.596488 1.174963 34.464680 -7.691405 0.000000 -0.000000 -0.000000 0.000000 -0.000000 -0.000000 0.000000 -0.000000 -0.000000 0.522693 3.445458 -10.037040 -7.764666 -45.743652 -38.217002 0.000003 -44.075603 0.000010 -97.299180 13.087311 -34.252804 0.551630 2.705039 -23.048227 0.546421 2.692793 -22.937713 0.137695 1.372875 -11.454434 -0.000003 -0.000001 0.000004 -1.558532 -5.280909 4.814031 3.140979 -0.722170 0.002191 -1.011342 -2.751794 2.081932 -0.000001 -0.000001 0.000002 0.552381 2.706819 -23.064236 0.545672 2.691008 -22.921712 0.137701 1.372877 -11.454435 -0.000001 0.000002 -0.000004 0.552381 2.706826 -23.064232 0.545681 2.691017 -22.921712 0.137696 1.372874 -11.454436 -0.000003 -0.000001 -0.000003 2.132962 6.442573 -22.679956 0.551114 -1.368013 -23.393021 0.137700 1.372877 -11.454436 -0.000001 0.000002 0.000003 4.288576 15.838573 3.492094 22.496188 16.260459 41.365255 0.000217 104.628007 -0.000241 -2.330593 -22.480039 13.436054 2.384014 -5.244429 48.867244 2.384005 -5.244444 48.867258 0.622202 -2.879741 24.379028 -0.000001 0.000004 -0.000002 -1.872407 -5.469153 -6.879524 6.248147 -27.328318 -1.382893 -0.447482 -9.184443 -3.060273 -0.000002 -0.000000 0.000003 2.384020 -5.244430 48.867230 2.384022 -5.244404 48.867258 0.622186 -2.879730 24.379030 -0.000002 -0.000000 0.000000 2.384010 -5.244444 48.867248 2.384020 -5.244441 48.867254 0.622195 -2.879734 24.379028 -0.000001 0.000000 0.000000 2.384023 -5.244419 48.867234 2.384010 -5.244427 48.867265 0.622187 -2.879733 24.379033 -0.000006 0.000000 -0.000002 -16.314433 14.264591 14.759257 13.465890 10.026330 2.021273 10.139234 0.467876 -8.532364 -0.032101 -0.000001 0.000003 0.000000 -0.000000 -0.000000 -3.076603 -15.034744 -9.054920 18.668442 3.477430 -9.994600 -9.499734 -2.308102 15.805780 -0.644229 -0.000031 0.000003 -0.000000 0.000000 0.000000 
14.340536 195.115585 48.588673 -7.621556 -31.649382 -4.085069 2.568526 -1.479819 0.197369 6.407044 -3.227008 1.931285 6.402758 -3.199494 1.995410 -5.231276 7.131205 -0.554476 1.121743 34.464216 -7.693276 -0.000000 -0.000000 -0.000000 -0.000000 -0.000000 -0.000000 -0.000000 -0.000000 -0.000000 0.523271 3.419837 -9.966190 -8.070218 -45.829115 -38.571571 0.000002 -43.926541 0.000000 -97.993175 13.024084 -33.806496 0.551026 2.703614 -23.035335 0.545621 2.690874 -22.920452 0.137488 1.371846 -11.445819 -0.000001 -0.000002 -0.000002 -1.558414 -5.272424 4.815293 3.141878 -0.713228 0.003026 -1.010867 -2.747320 2.082417 0.000003 0.000000 0.000001 0.551786 2.705389 -23.051351 0.544867 2.689098 -22.904418 0.137489 1.371851 -11.445820 0.000000 0.000001 -0.000000 0.551786 2.705396 -23.051345 0.544873 2.689105 -22.904418 0.137493 1.371851 -11.445821 -0.000004 -0.000001 0.000002 2.131498 6.441504 -22.666970 0.550298 -1.369921 -23.375812 0.137476 1.371855 -11.445809 -0.000001 -0.000002 -0.000002 4.283078 15.869499 3.604111 22.449491 16.197874 41.240959 0.000017 104.628663 -0.000026 -2.453095 -22.489810 13.499767 2.384010 -5.244430 48.867258 2.384017 -5.244431 48.867241 0.622196 -2.879739 24.379030 0.000001 -0.000001 -0.000000 -1.872398 -5.469134 -6.879514 6.249999 -27.351267 -1.384088 -0.446562 -9.195891 -3.061384 -0.000001 0.000000 0.000003 2.384016 -5.244428 48.867258 2.384007 -5.244409 48.867251 0.622198 -2.879736 24.379028 0.000004 -0.000002 -0.000002 2.384012 -5.244433 48.867248 2.384015 -5.244435 48.867248 0.622190 -2.879729 24.379030 0.000000 -0.000001 0.000002 2.384006 -5.244422 48.867265 2.384019 -5.244430 48.867251 0.622197 -2.879736 24.379028 -0.000002 0.000000 -0.000002 -16.333448 14.252831 14.802729 13.671236 10.025264 2.032706 10.026222 0.489162 -8.552571 -0.032275 0.000002 0.000003 -0.000000 0.000000 0.000000 -2.995299 -15.017836 -9.038680 18.687515 3.486418 -9.990090 -9.514471 -2.309749 15.811200 -0.642260 0.000012 0.000001 -0.000000 -0.000002 -0.000000 
14.379190 195.083649 48.605202 -7.786685 -31.670392 -4.222037 2.606941 -1.482262 0.164932 6.468008 -3.239455 1.930929 6.462669 -3.213322 1.995957 -5.260330 7.118523 -0.516021 1.067849 34.458598 -7.691452 0.000000 -0.000000 -0.000000 0.000000 -0.000000 -0.000000 0.000000 -0.000000 -0.000000 0.525839 3.385954 -9.898024 -8.439186 -45.980574 -38.994588 0.000012 -43.765328 0.000001 -99.180084 12.970411 -32.823864 0.550180 2.701607 -23.017278 0.544405 2.688037 -22.894886 0.137190 1.370347 -11.433058 0.000002 0.000002 0.000002 -1.558243 -5.259471 4.817231 3.143211 -0.699432 0.004304 -1.010138 -2.740439 2.083173 0.000004 0.000001 -0.000001 0.550931 2.703385 -23.033293 0.543663 2.686263 -22.878861 0.137187 1.370348 -11.433055 -0.000004 0.000000 0.000001 0.550922 2.703394 -23.033283 0.543664 2.686271 -22.878864 0.137182 1.370344 -11.433065 -0.000001 -0.000001 -0.000003 2.129449 6.440004 -22.648757 0.549074 -1.372746 -23.350323 0.137181 1.370350 -11.433059 -0.000002 -0.000001 -0.000002 4.274873 15.896792 3.734978 22.364635 16.143321 41.061082 -0.000061 104.595475 0.000056 -2.664259 -22.475654 13.620300 2.383953 -5.244376 48.866646 2.383965 -5.244395 48.866660 0.622188 -2.879695 24.378738 -0.000001 0.000002 -0.000002 -1.872404 -5.469125 -6.879487 6.253346 -27.392498 -1.386189 -0.444893 -9.216441 -3.063417 0.000000 -0.000000 0.000000 2.383964 -5.244375 48.866623 2.383948 -5.244360 48.866664 0.622195 -2.879706 24.378736 0.000002 0.000001 -0.000001 2.383948 -5.244390 48.866636 2.383985 -5.244381 48.866667 0.622178 -2.879685 24.378735 -0.000003 -0.000000 0.000003 2.383952 -5.244368 48.866640 2.383979 -5.244383 48.866657 0.622166 -2.879684 24.378730 -0.000002 0.000001 -0.000002 -16.337956 14.223210 14.886474 13.962026 10.025148 2.022197 9.874020 0.531310 -8.569108 -0.032847 -0.000000 -0.000001 -0.000000 -0.000000 -0.000000 -2.855643 -14.995516 -9.001155 18.716226 3.506709 -9.990624 -9.533250 -2.312408 15.818035 -0.639031 -0.000015 0.000002 -0.000000 0.000002 0.000000 
14.421294 195.052994 48.614288 -7.953545 -31.695950 -4.369356 2.644747 -1.484841 0.140114 6.526468 -3.251159 1.940428 6.520017 -3.226275 2.007437 -5.290772 7.111819 -0.488743 1.051062 34.455166 -7.696803 0.000000 0.000000 -0.000000 0.000000 0.000000 -0.000000 0.000000 0.000000 -0.000000 0.529274 3.354319 -9.847208 -8.792493 -46.131828 -39.400196 0.000004 -43.672568 -0.000001 -100.559748 12.860274 -31.391659 0.549124 2.699135 -22.994962 0.543050 2.684812 -22.865791 0.136834 1.368627 -11.418545 -0.000004 0.000001 -0.000001 -1.558037 -5.245222 4.819350 3.144680 -0.684399 0.005687 -1.009355 -2.732946 2.083995 0.000001 0.000002 0.000001 0.549877 2.700914 -23.010979 0.542303 2.683036 -22.849778 0.136843 1.368628 -11.418537 -0.000000 -0.000001 -0.000002 0.549876 2.700923 -23.010981 0.542302 2.683039 -22.849781 0.136845 1.368628 -11.418543 0.000000 0.000002 0.000003 2.126931 6.438141 -22.626272 0.547683 -1.375962 -23.321326 0.136835 1.368628 -11.418545 -0.000002 -0.000001 0.000003 4.267130 15.896482 3.793541 22.254631 16.159942 40.922481 0.000212 104.513178 -0.000226 -2.860788 -22.417528 13.760077 2.383772 -5.244219 48.864731 2.383818 -5.244256 48.864915 0.622140 -2.879615 24.377876 -0.000003 0.000003 -0.000001 -1.872394 -5.469147 -6.879533 6.256373 -27.429732 -1.388061 -0.443387 -9.235013 -3.065191 -0.000002 -0.000000 0.000002 2.383778 -5.244226 48.864731 2.383802 -5.244225 48.864915 0.622154 -2.879621 24.377877 -0.000000 -0.000001 0.000001 2.383789 -5.244235 48.864724 2.383809 -5.244249 48.864932 0.622154 -2.879610 24.377876 0.000000 -0.000000 0.000001 2.383785 -5.244215 48.864727 2.383800 -5.244245 48.864925 0.622152 -2.879618 24.377879 -0.000002 0.000000 0.000001 -16.355433 14.243256 14.987610 14.241867 10.024784 2.024834 9.727713 0.523983 -8.580814 -0.033277 -0.000004 -0.000001 -0.000000 0.000000 0.000000 -2.712836 -14.977920 -8.954736 18.736744 3.538705 -9.989548 -9.545160 -2.313828 15.821329 -0.636580 -0.000009 -0.000003 -0.000000 -0.000003 -0.000000 
